<svg xmlns="http://www.w3.org/2000/svg" id="Layer_1" viewBox="0 0 462.03 462.03"><defs><style>.cls-1{fill-rule:evenodd}</style></defs><path d="M231.01 462.03C103.63 462.03 0 358.4 0 231.02S103.63 0 231.01 0s231.01 103.63 231.01 231.02-103.63 231.01-231.01 231.01Zm0-458.71C105.46 3.32 3.32 105.46 3.32 231.02s102.15 227.7 227.7 227.7 227.7-102.15 227.7-227.7S356.57 3.32 231.01 3.32Z"/><path d="M232.08 446.59v-3.32c1.1 0 2.19 0 3.29-.03l.05 3.32c-1.11.02-2.22.03-3.34.03Zm-3.33-.03c-1.11-.02-2.23-.04-3.34-.07l.1-3.32c1.09.03 2.19.06 3.28.07l-.05 3.32Zm10-.08-.11-3.31c1.1-.04 2.19-.08 3.29-.13l.16 3.31c-1.11.05-2.22.09-3.33.13Zm-16.67-.12c-1.11-.05-2.23-.11-3.34-.18l.21-3.31c1.09.07 2.18.12 3.28.17l-.15 3.31Zm23.34-.18-.21-3.31c1.09-.07 2.19-.14 3.28-.23l.25 3.31c-1.1.08-2.21.16-3.33.23Zm-30-.22c-1.11-.08-2.22-.18-3.33-.28l.3-3.3c1.09.1 2.18.19 3.27.28l-.25 3.31Zm36.65-.3-.31-3.3c1.09-.1 2.18-.21 3.27-.33l.36 3.3c-1.1.12-2.21.23-3.32.34Zm-43.3-.31c-1.1-.12-2.21-.25-3.31-.38l.4-3.29c1.09.13 2.18.26 3.27.38l-.36 3.3Zm49.94-.41-.41-3.29c1.09-.14 2.18-.28 3.26-.43l.46 3.28c-1.1.15-2.2.3-3.3.44Zm-56.57-.41c-1.1-.15-2.2-.31-3.3-.48l.51-3.28c1.09.17 2.17.33 3.26.48l-.46 3.28Zm63.17-.52-.51-3.28c1.09-.17 2.17-.35 3.24-.53l.56 3.27c-1.09.19-2.19.37-3.29.54Zm-69.76-.5c-1.1-.19-2.19-.38-3.28-.59l.61-3.26c1.08.2 2.15.4 3.23.58l-.56 3.27Zm76.34-.63-.62-3.26c1.08-.2 2.15-.41 3.23-.63l.66 3.25c-1.09.22-2.17.44-3.27.64Zm-82.9-.6c-1.09-.22-2.18-.45-3.26-.69l.71-3.24c1.07.23 2.14.46 3.21.68l-.66 3.25Zm89.44-.73-.71-3.24c1.07-.24 2.14-.48 3.2-.73l.76 3.23c-1.08.26-2.16.51-3.26.74Zm-95.96-.7c-1.08-.26-2.16-.52-3.24-.79l.81-3.22c1.06.27 2.12.53 3.19.78l-.76 3.23Zm102.45-.84-.82-3.22c1.06-.27 2.12-.55 3.18-.83l.87 3.2c-1.08.29-2.15.57-3.23.85ZM176 439.22c-1.08-.29-2.14-.59-3.22-.89l.91-3.19c1.05.3 2.11.59 3.16.88l-.86 3.2Zm115.37-.96-.92-3.19c1.05-.3 2.1-.61 3.15-.93l.97 3.17c-1.06.32-2.13.64-3.2.95Zm-121.79-.88c-1.07-.33-2.14-.66-3.2-1l1.02-3.16c1.04.34 2.09.66 3.15.98l-.97 3.17Zm128.17-1.06-1.01-3.16c1.04-.33 2.08-.68 3.11-1.03l1.07 3.14c-1.05.36-2.11.71-3.17 1.05Zm-134.55-.99c-1.06-.36-2.11-.72-3.17-1.1l1.11-3.13c1.04.37 2.08.73 3.12 1.08l-1.06 3.14Zm140.87-1.15-1.11-3.13c1.04-.37 2.06-.74 3.09-1.13l1.17 3.11c-1.04.39-2.09.77-3.14 1.15Zm-147.18-1.09c-1.05-.39-2.09-.79-3.13-1.2l1.21-3.09c1.02.4 2.05.79 3.08 1.18l-1.16 3.11Zm153.43-1.25-1.21-3.09c1.02-.4 2.04-.81 3.05-1.22l1.26 3.07c-1.03.42-2.06.84-3.1 1.25Zm-159.66-1.19c-1.03-.42-2.06-.85-3.09-1.29l1.31-3.05c1.01.43 2.02.86 3.04 1.27l-1.26 3.07Zm165.82-1.34-1.31-3.05c1-.43 2-.87 3-1.31l1.35 3.03c-1.01.45-2.03.9-3.04 1.33Zm-171.98-1.3c-1.02-.46-2.03-.92-3.04-1.39l1.4-3.01c.99.46 2 .92 3 1.37l-1.35 3.03Zm178.05-1.42-1.4-3.01c.99-.46 1.98-.93 2.95-1.41l1.45 2.98c-1 .48-2 .96-3.01 1.43Zm-184.11-1.4c-1.01-.49-2-.98-3-1.48l1.5-2.96c.98.49 1.96.98 2.95 1.46l-1.44 2.99Zm190.1-1.5-1.5-2.96c.97-.49 1.95-.99 2.91-1.5l1.54 2.94c-.98.51-1.97 1.02-2.95 1.52Zm-196.07-1.51c-.99-.52-1.97-1.04-2.95-1.58l1.59-2.91c.96.52 1.93 1.04 2.9 1.55l-1.54 2.94Zm201.97-1.58-1.59-2.91c.96-.52 1.91-1.05 2.86-1.59l1.63 2.89c-.97.54-1.94 1.08-2.91 1.61Zm-207.85-1.62c-.97-.55-1.93-1.1-2.9-1.66l1.67-2.86c.95.56 1.9 1.1 2.86 1.64l-1.63 2.89Zm213.64-1.66-1.68-2.86c.94-.55 1.88-1.11 2.82-1.68l1.72 2.84c-.95.57-1.9 1.14-2.86 1.7Zm-219.41-1.72c-.95-.58-1.9-1.16-2.85-1.76l1.76-2.81c.93.58 1.86 1.16 2.8 1.73l-1.72 2.84Zm225.1-1.73-1.76-2.81c.92-.58 1.85-1.17 2.76-1.77l1.81 2.78c-.93.6-1.87 1.2-2.81 1.79Zm-230.76-1.83c-.93-.61-1.87-1.22-2.79-1.84l1.85-2.75c.91.61 1.82 1.22 2.74 1.81l-1.81 2.78Zm236.34-1.79-1.85-2.76c.91-.61 1.81-1.22 2.71-1.85l1.89 2.72c-.91.63-1.83 1.26-2.75 1.88Zm-241.89-1.93c-.91-.64-1.82-1.28-2.73-1.93l1.94-2.69c.89.64 1.79 1.27 2.69 1.9l-1.9 2.72Zm247.37-1.88-1.94-2.69c.89-.64 1.77-1.28 2.65-1.93l1.98 2.66c-.89.66-1.79 1.32-2.69 1.97Zm-252.79-2.02c-.89-.66-1.78-1.33-2.67-2.01l2.01-2.64c.87.67 1.75 1.33 2.63 1.98l-1.98 2.66Zm258.14-1.95-2.02-2.63c.87-.67 1.74-1.34 2.59-2.01l2.05 2.6c-.87.69-1.75 1.37-2.63 2.05Zm-263.44-2.11c-.87-.69-1.74-1.39-2.6-2.09l2.1-2.57c.85.69 1.7 1.38 2.56 2.06l-2.06 2.6Zm268.67-2.02-2.09-2.57c.85-.69 1.69-1.39 2.52-2.09l2.14 2.53c-.85.72-1.7 1.43-2.57 2.13Zm-273.84-2.21c-.85-.72-1.7-1.44-2.54-2.17l2.18-2.5c.83.72 1.66 1.43 2.5 2.14l-2.14 2.54Zm278.94-2.09-2.18-2.5c.83-.72 1.65-1.44 2.46-2.17l2.22 2.47c-.83.74-1.66 1.48-2.5 2.21Zm-283.98-2.29c-.83-.74-1.65-1.49-2.47-2.25l2.25-2.43c.8.74 1.61 1.48 2.43 2.21l-2.22 2.47Zm288.95-2.16-2.25-2.43c.8-.74 1.6-1.49 2.4-2.25l2.29 2.4c-.81.77-1.61 1.53-2.43 2.28Zm-293.85-2.37c-.8-.77-1.6-1.54-2.39-2.32l2.33-2.36c.78.77 1.57 1.53 2.36 2.29l-2.29 2.4Zm298.67-2.23-2.32-2.37c.78-.77 1.55-1.54 2.32-2.32l2.36 2.33c-.78.79-1.57 1.58-2.37 2.36Zm-303.42-2.45c-.78-.79-1.55-1.59-2.32-2.4l2.4-2.29c.75.79 1.52 1.58 2.28 2.36l-2.36 2.33Zm308.11-2.3-2.4-2.29c.76-.79 1.51-1.59 2.26-2.4l2.43 2.26c-.75.81-1.52 1.62-2.28 2.43Zm-312.72-2.53c-.75-.82-1.5-1.64-2.24-2.46l2.47-2.22c.73.82 1.47 1.63 2.21 2.43l-2.44 2.25Zm317.26-2.36-2.47-2.22c.74-.81 1.46-1.64 2.18-2.46l2.5 2.18c-.73.84-1.47 1.67-2.21 2.5Zm-321.71-2.61c-.73-.84-1.45-1.68-2.16-2.53l2.53-2.14c.71.84 1.42 1.67 2.14 2.5l-2.51 2.17Zm326.09-2.43-2.53-2.14c.71-.84 1.41-1.68 2.1-2.53l2.57 2.1c-.7.86-1.42 1.72-2.13 2.57Zm-330.39-2.66c-.7-.86-1.4-1.72-2.09-2.59l2.6-2.06c.68.86 1.37 1.71 2.06 2.56l-2.57 2.1Zm334.62-2.51-2.6-2.05c.68-.86 1.35-1.73 2.02-2.6l2.63 2.02c-.68.88-1.36 1.76-2.05 2.63Zm-338.75-2.72c-.68-.88-1.35-1.77-2.01-2.66l2.66-1.98c.65.88 1.31 1.75 1.98 2.62l-2.63 2.02Zm342.81-2.58-2.66-1.98c.65-.88 1.3-1.76 1.94-2.65l2.69 1.93c-.65.91-1.31 1.81-1.98 2.7Zm-346.79-2.77c-.64-.9-1.29-1.81-1.92-2.72l2.72-1.9c.63.9 1.26 1.79 1.89 2.68l-2.69 1.93Zm350.7-2.65-2.73-1.88c.63-.9 1.25-1.81 1.86-2.72l2.75 1.86c-.62.92-1.25 1.84-1.88 2.75Zm-354.5-2.82c-.62-.92-1.23-1.85-1.84-2.78l2.79-1.8c.59.92 1.2 1.83 1.81 2.73l-2.75 1.85Zm358.22-2.73-2.78-1.81c.6-.92 1.19-1.84 1.77-2.77l2.8 1.77c-.59.94-1.19 1.88-1.8 2.81Zm-361.85-2.85c-.59-.94-1.17-1.89-1.75-2.83l2.84-1.72c.56.93 1.14 1.86 1.72 2.79l-2.81 1.77Zm365.41-2.8-2.84-1.72c.57-.94 1.13-1.88 1.69-2.83l2.86 1.68c-.56.96-1.13 1.92-1.71 2.87Zm-368.87-2.89c-.56-.96-1.12-1.92-1.66-2.89l2.9-1.62c.53.95 1.08 1.89 1.63 2.83l-2.86 1.68Zm372.25-2.88-2.89-1.63c.54-.96 1.07-1.91 1.6-2.88l2.91 1.58c-.53.98-1.08 1.95-1.62 2.93ZM43.4 334.53c-.53-.97-1.06-1.95-1.57-2.93l2.93-1.54c.51.97 1.02 1.93 1.54 2.89l-2.91 1.59Zm378.72-2.95-2.93-1.54c.51-.97 1.01-1.95 1.51-2.93l2.96 1.5c-.5 1-1.01 1.99-1.53 2.97Zm-381.81-2.94c-.5-.99-.99-1.99-1.48-2.98l2.99-1.44c.48.98.96 1.96 1.45 2.93l-2.96 1.5Zm384.83-3.03-2.99-1.45c.48-.99.95-1.98 1.42-2.98l3.01 1.41c-.47 1.01-.95 2.02-1.44 3.02ZM37.4 322.66c-.47-1-.93-2.01-1.38-3.03l3.03-1.36c.45 1 .9 1.99 1.36 2.98l-3.01 1.41Zm390.57-3.12-3.03-1.35c.45-1 .89-2.01 1.32-3.02l3.04 1.31c-.44 1.03-.88 2.05-1.34 3.06Zm-393.29-2.95c-.44-1.02-.87-2.04-1.29-3.07l3.07-1.26c.41 1.01.84 2.01 1.27 3.01l-3.04 1.31Zm395.93-3.2-3.07-1.26c.41-1.01.82-2.03 1.22-3.06l3.09 1.21c-.41 1.04-.82 2.08-1.25 3.11Zm-398.46-2.96c-.41-1.04-.81-2.07-1.2-3.12l3.1-1.17c.39 1.03.78 2.05 1.18 3.07l-3.08 1.22Zm400.9-3.27-3.1-1.17c.39-1.03.76-2.06 1.13-3.1l3.12 1.11c-.38 1.05-.76 2.1-1.15 3.15Zm-403.24-2.98c-.38-1.05-.74-2.1-1.1-3.15l3.14-1.07c.35 1.04.71 2.07 1.08 3.1l-3.12 1.12Zm405.49-3.34-3.14-1.06c.35-1.04.69-2.09 1.03-3.14l3.15 1.02c-.34 1.06-.69 2.12-1.05 3.18Zm-407.65-2.98c-.34-1.06-.67-2.12-1-3.18l3.17-.97c.32 1.05.65 2.1.98 3.14l-3.16 1.01Zm409.7-3.4-3.17-.96c.31-1.05.63-2.1.93-3.15l3.19.91c-.3 1.07-.62 2.14-.94 3.2Zm-411.64-2.99c-.31-1.07-.61-2.14-.9-3.21l3.2-.87c.29 1.06.59 2.11.89 3.17l-3.19.92Zm413.47-3.42-3.2-.86c.29-1.06.56-2.12.83-3.18l3.21.82c-.27 1.08-.55 2.15-.85 3.23Zm-415.22-3.02c-.28-1.08-.54-2.16-.8-3.24l3.23-.78c.26 1.07.52 2.13.79 3.2l-3.21.82Zm416.86-3.45-3.23-.77c.25-1.06.5-2.13.73-3.2l3.24.71c-.24 1.09-.49 2.17-.74 3.26Zm-418.4-3.04c-.24-1.09-.47-2.18-.7-3.27l3.25-.66c.22 1.07.44 2.14.68 3.21l-3.24.72Zm419.84-3.48-3.25-.67c.22-1.07.43-2.14.63-3.22l3.26.61c-.2 1.1-.42 2.19-.64 3.28ZM21.08 272c-.21-1.09-.4-2.19-.59-3.29l3.27-.55c.18 1.08.38 2.16.58 3.23l-3.26.62Zm422.41-3.5-3.27-.56c.19-1.08.36-2.16.53-3.24l3.28.51c-.17 1.1-.35 2.2-.54 3.3Zm-423.55-3.07c-.17-1.1-.34-2.2-.49-3.31l3.28-.46c.15 1.09.31 2.17.48 3.24l-3.28.52Zm424.57-3.52-3.28-.47c.16-1.08.29-2.17.43-3.25l3.29.41c-.14 1.11-.28 2.21-.44 3.31Zm-425.49-3.1c-.14-1.1-.27-2.21-.39-3.32l3.3-.35c.12 1.09.24 2.18.38 3.26l-3.29.41Zm426.31-3.52-3.3-.36c.12-1.09.23-2.17.33-3.27l3.3.3c-.1 1.11-.21 2.22-.33 3.32Zm-427.04-3.11c-.1-1.11-.2-2.22-.29-3.33l3.31-.25c.08 1.09.17 2.18.28 3.27l-3.3.31Zm427.66-3.54-3.3-.26c.08-1.09.16-2.18.23-3.27l3.31.2c-.07 1.11-.14 2.22-.23 3.33Zm-428.17-3.11c-.07-1.11-.13-2.22-.18-3.33l3.31-.16c.05 1.1.11 2.19.18 3.28l-3.31.2Zm428.58-3.55-3.31-.16c.05-1.09.09-2.18.12-3.28l3.32.1c-.03 1.11-.07 2.23-.13 3.34Zm-428.9-3.12c-.04-1.11-.06-2.22-.08-3.33l3.32-.05c.02 1.09.04 2.19.08 3.28l-3.32.11Zm429.1-3.55-3.32-.05c.02-1.09.03-2.19.03-3.29v-.44h3.32v.44c0 1.11 0 2.23-.03 3.33Zm-429.21-3.12v-.22c0-1.04 0-2.08.02-3.11l3.32.05c-.02 1.02-.02 2.04-.02 3.06l-3.32.22Zm425.88-3.94c-.02-1.09-.05-2.19-.08-3.28l3.32-.11c.04 1.11.06 2.22.08 3.33l-3.32.06Zm-422.47-2.63-3.32-.1c.03-1.11.07-2.22.13-3.33l3.31.15c-.05 1.09-.09 2.19-.12 3.28Zm422.27-3.94c-.05-1.09-.11-2.19-.18-3.28l3.31-.21c.07 1.11.13 2.22.18 3.33l-3.31.16Zm-421.97-2.62-3.31-.2c.07-1.11.14-2.22.23-3.33l3.31.25c-.08 1.09-.16 2.18-.23 3.28Zm421.55-3.93c-.09-1.09-.18-2.18-.29-3.27l3.3-.31c.1 1.11.2 2.21.29 3.32l-3.3.26ZM21.55 212.5l-3.3-.3c.1-1.11.21-2.22.33-3.32l3.3.35c-.12 1.09-.22 2.18-.32 3.27Zm420.44-3.92c-.12-1.09-.25-2.18-.38-3.26l3.29-.41c.14 1.1.27 2.21.39 3.31l-3.3.36Zm-419.74-2.61-3.29-.41c.14-1.1.28-2.21.43-3.31l3.28.46c-.15 1.08-.29 2.17-.43 3.26Zm418.92-3.9c-.16-1.09-.31-2.17-.49-3.25l3.28-.52c.17 1.1.34 2.2.49 3.3l-3.28.47Zm-418.02-2.61-3.28-.51c.17-1.1.35-2.2.53-3.29l3.27.56c-.18 1.08-.36 2.16-.53 3.24Zm416.99-3.89c-.18-1.08-.38-2.16-.58-3.23l3.26-.62c.21 1.09.4 2.19.6 3.28l-3.27.56Zm-415.88-2.58-3.26-.61c.2-1.09.42-2.19.64-3.28l3.25.66c-.22 1.07-.43 2.15-.63 3.22Zm414.66-3.87c-.22-1.08-.45-2.15-.69-3.21l3.24-.72c.24 1.09.47 2.17.7 3.26l-3.25.67Zm-413.36-2.57-3.24-.71c.24-1.09.49-2.17.74-3.26l3.23.76c-.25 1.06-.49 2.13-.73 3.2Zm411.94-3.84c-.26-1.07-.52-2.13-.79-3.19l3.21-.82c.28 1.08.54 2.16.8 3.24l-3.23.78Zm-410.43-2.56-3.22-.81c.27-1.08.55-2.16.85-3.24l3.2.87c-.29 1.05-.56 2.11-.83 3.17Zm408.8-3.81c-.29-1.06-.58-2.11-.89-3.16l3.19-.93c.31 1.07.61 2.14.9 3.21l-3.2.87Zm-407.1-2.53-3.19-.91c.3-1.07.62-2.14.94-3.2l3.17.96c-.31 1.05-.62 2.1-.93 3.16Zm405.28-3.78c-.32-1.05-.65-2.09-.98-3.13l3.15-1.02c.34 1.06.68 2.12 1 3.19l-3.17.97ZM30.69 167.5l-3.16-1.01c.34-1.06.69-2.12 1.05-3.18l3.14 1.06c-.35 1.04-.69 2.08-1.03 3.13Zm401.34-3.72c-.36-1.04-.72-2.07-1.09-3.1l3.12-1.12c.38 1.04.74 2.09 1.1 3.15l-3.14 1.08Zm-399.24-2.52-3.12-1.11c.38-1.05.75-2.1 1.14-3.14l3.11 1.16c-.38 1.03-.76 2.06-1.13 3.1Zm397.02-3.66c-.39-1.03-.78-2.05-1.18-3.07l3.08-1.22c.41 1.03.81 2.07 1.2 3.11l-3.1 1.18ZM35.1 155.08l-3.09-1.21c.41-1.04.82-2.07 1.24-3.1l3.07 1.25c-.41 1.02-.82 2.04-1.22 3.06Zm392.3-3.6c-.42-1.01-.84-2.01-1.27-3.02l3.04-1.31c.44 1.02.87 2.04 1.29 3.06l-3.06 1.27Zm-389.81-2.51-3.05-1.3c.44-1.03.88-2.05 1.34-3.07l3.03 1.35c-.45 1-.89 2.01-1.32 3.02Zm387.22-3.5c-.45-1-.9-1.99-1.37-2.97l3.01-1.41c.47 1 .93 2.01 1.39 3.02l-3.03 1.36Zm-384.54-2.51-3.01-1.4c.47-1.01.95-2.02 1.43-3.03l2.99 1.45c-.48.99-.95 1.98-1.42 2.97Zm381.76-3.42c-.48-.98-.97-1.96-1.46-2.93l2.96-1.5c.5.99.99 1.98 1.48 2.98l-2.98 1.45Zm-378.88-2.51-2.96-1.5c.5-.99 1.01-1.99 1.53-2.97l2.94 1.54c-.51.97-1.01 1.95-1.51 2.93Zm375.92-3.34c-.51-.97-1.03-1.93-1.55-2.89l2.91-1.59c.53.97 1.06 1.95 1.57 2.93l-2.93 1.54ZM46.2 131.2l-2.91-1.58c.53-.98 1.07-1.95 1.62-2.93l2.89 1.63c-.54.96-1.07 1.92-1.59 2.88Zm369.72-3.26c-.53-.95-1.08-1.9-1.64-2.84l2.86-1.68c.56.96 1.11 1.92 1.66 2.89l-2.89 1.63Zm-366.48-2.48-2.86-1.67c.56-.96 1.13-1.92 1.71-2.87l2.84 1.72c-.57.94-1.13 1.88-1.68 2.83Zm363.17-3.17c-.57-.93-1.15-1.86-1.73-2.79l2.8-1.77c.59.94 1.18 1.88 1.75 2.83l-2.83 1.72Zm-359.76-2.45-2.81-1.76c.59-.94 1.19-1.88 1.8-2.82l2.78 1.81c-.6.92-1.19 1.84-1.77 2.77Zm356.27-3.09c-.6-.92-1.2-1.83-1.81-2.74l2.75-1.85c.62.92 1.23 1.84 1.84 2.77l-2.78 1.81Zm-352.69-2.43-2.75-1.85c.62-.93 1.25-1.85 1.88-2.76l2.72 1.89c-.63.9-1.24 1.8-1.85 2.71Zm349.02-3.01c-.62-.9-1.25-1.79-1.89-2.67l2.69-1.94c.65.9 1.3 1.81 1.93 2.72l-2.73 1.89Zm-345.27-2.4-2.69-1.93c.65-.91 1.31-1.8 1.97-2.7l2.66 1.98c-.65.88-1.3 1.77-1.94 2.66Zm341.44-2.92c-.66-.88-1.32-1.75-1.98-2.62l2.63-2.02c.68.88 1.34 1.77 2.01 2.65l-2.66 1.99ZM64.1 103.63l-2.64-2.01c.68-.88 1.36-1.76 2.05-2.64l2.6 2.06c-.68.86-1.35 1.72-2.01 2.59Zm333.52-2.85c-.68-.86-1.37-1.71-2.06-2.55l2.57-2.1c.71.86 1.41 1.73 2.09 2.6l-2.6 2.06ZM68.18 98.47l-2.57-2.1c.7-.86 1.41-1.72 2.13-2.57l2.54 2.13c-.7.84-1.41 1.69-2.1 2.53Zm325.28-2.77c-.7-.84-1.42-1.66-2.13-2.49l2.5-2.18c.73.84 1.46 1.68 2.17 2.54l-2.54 2.13ZM72.41 93.44l-2.5-2.18c.73-.84 1.47-1.67 2.21-2.5l2.47 2.21c-.73.81-1.45 1.64-2.18 2.46Zm316.74-2.69c-.73-.81-1.47-1.62-2.21-2.42l2.43-2.26c.76.81 1.51 1.64 2.25 2.47l-2.47 2.21ZM76.8 88.55l-2.44-2.25c.75-.82 1.52-1.63 2.29-2.43l2.4 2.29c-.76.79-1.51 1.59-2.25 2.39Zm307.88-2.61c-.76-.79-1.52-1.58-2.29-2.36l2.36-2.33c.78.79 1.55 1.59 2.32 2.39l-2.39 2.3ZM81.33 83.79l-2.36-2.33c.78-.79 1.57-1.58 2.36-2.36l2.33 2.36c-.78.77-1.55 1.54-2.32 2.32Zm298.74-2.53c-.78-.77-1.57-1.53-2.36-2.28l2.29-2.4c.81.77 1.61 1.54 2.4 2.32l-2.33 2.37ZM86.01 79.18l-2.29-2.4c.8-.77 1.61-1.53 2.43-2.29l2.25 2.43c-.8.74-1.6 1.49-2.39 2.25Zm289.3-2.45c-.81-.74-1.62-1.48-2.44-2.21l2.22-2.47c.83.74 1.65 1.49 2.47 2.24l-2.25 2.44ZM90.83 74.72l-2.22-2.46c.83-.74 1.66-1.48 2.5-2.21l2.18 2.5c-.83.72-1.65 1.44-2.46 2.17Zm279.59-2.38c-.83-.72-1.66-1.43-2.5-2.14l2.14-2.54c.85.72 1.69 1.44 2.54 2.17l-2.17 2.51ZM95.78 70.41l-2.14-2.53c.85-.72 1.7-1.43 2.57-2.13l2.1 2.57c-.85.69-1.69 1.39-2.53 2.1Zm269.61-2.3c-.85-.69-1.7-1.38-2.57-2.06l2.05-2.6c.87.69 1.74 1.39 2.6 2.09l-2.09 2.57Zm-264.52-1.85-2.06-2.6c.87-.69 1.75-1.37 2.63-2.05l2.02 2.63c-.87.66-1.73 1.34-2.59 2.02Zm259.35-2.23c-.86-.67-1.74-1.32-2.62-1.98l1.98-2.67c.89.66 1.78 1.33 2.67 2.01l-2.02 2.63Zm-254.15-1.77-1.98-2.66c.89-.66 1.79-1.32 2.69-1.97l1.94 2.69c-.89.64-1.77 1.28-2.65 1.94Zm248.86-2.14c-.89-.64-1.78-1.27-2.68-1.9l1.89-2.72c.91.63 1.83 1.28 2.73 1.93l-1.94 2.69ZM111.4 58.43l-1.9-2.72c.91-.63 1.83-1.26 2.75-1.88l1.85 2.75c-.91.61-1.81 1.23-2.7 1.85Zm238.13-2.06c-.91-.61-1.83-1.21-2.75-1.81l1.81-2.78c.93.61 1.86 1.22 2.79 1.84l-1.85 2.75Zm-232.7-1.6-1.81-2.78c.93-.61 1.87-1.21 2.81-1.8l1.76 2.81c-.93.58-1.85 1.17-2.76 1.77Zm227.18-1.98c-.93-.58-1.87-1.16-2.8-1.73l1.72-2.84c.96.58 1.9 1.16 2.85 1.75l-1.76 2.81Zm-221.62-1.52-1.72-2.83c.95-.58 1.9-1.14 2.86-1.71l1.68 2.86c-.94.55-1.88 1.11-2.81 1.68Zm215.99-1.89c-.95-.55-1.9-1.1-2.86-1.64l1.63-2.89c.97.55 1.94 1.1 2.9 1.67l-1.67 2.86Zm-210.34-1.42-1.63-2.89c.97-.55 1.93-1.09 2.91-1.62l1.59 2.91c-.96.52-1.91 1.06-2.87 1.59Zm204.61-1.81c-.97-.52-1.93-1.04-2.91-1.55l1.54-2.94c.99.52 1.97 1.04 2.95 1.57l-1.58 2.91Zm-198.86-1.33-1.54-2.94c.98-.51 1.97-1.03 2.96-1.52l1.5 2.96c-.97.49-1.94.99-2.91 1.5Zm193.02-1.72c-.98-.49-1.96-.98-2.95-1.46l1.44-2.99c1 .49 2 .98 3 1.48l-1.49 2.96Zm-187.17-1.24-1.45-2.98c.99-.48 2-.96 3-1.43l1.41 3.01c-.99.46-1.98.93-2.96 1.41Zm181.24-1.63c-.99-.46-2-.92-3-1.37l1.35-3.03c1.02.45 2.03.91 3.05 1.38l-1.4 3.01Zm-175.31-1.14-1.35-3.03c1.01-.46 2.02-.9 3.04-1.34l1.31 3.05c-1 .43-2 .87-3 1.31Zm169.3-1.54c-1.01-.43-2.02-.85-3.04-1.27l1.26-3.07c1.03.42 2.06.85 3.08 1.29l-1.3 3.05ZM151.58 36.5l-1.26-3.07c1.03-.42 2.06-.84 3.1-1.25l1.21 3.09c-1.02.4-2.04.81-3.05 1.23Zm157.18-1.44c-1.02-.4-2.04-.79-3.08-1.17l1.16-3.11c1.05.39 2.09.79 3.13 1.19l-1.21 3.09Zm-151.07-.96-1.17-3.11c1.04-.39 2.09-.77 3.13-1.15l1.12 3.12c-1.03.37-2.06.75-3.09 1.13Zm144.9-1.34c-1.04-.37-2.08-.73-3.12-1.08l1.06-3.14c1.06.36 2.11.72 3.16 1.09l-1.1 3.13Zm-138.71-.88-1.07-3.14c1.05-.36 2.11-.71 3.17-1.05l1.02 3.15c-1.04.34-2.08.68-3.12 1.03Zm132.45-1.23c-1.05-.34-2.1-.66-3.15-.98l.96-3.17c1.07.32 2.14.65 3.2.99l-1.01 3.16Zm-126.2-.79-.97-3.17c1.06-.33 2.13-.64 3.2-.95l.92 3.19c-1.05.3-2.1.62-3.15.93Zm119.9-1.11c-1.05-.3-2.11-.59-3.17-.88l.86-3.2c1.07.29 2.14.59 3.21.89l-.91 3.19Zm-113.59-.71-.87-3.2c1.08-.29 2.15-.57 3.23-.85l.82 3.21c-1.06.27-2.12.55-3.18.84Zm107.24-.99c-1.06-.27-2.12-.52-3.19-.78l.76-3.23c1.09.25 2.16.52 3.24.79l-.81 3.22Zm-100.87-.63-.77-3.23c1.08-.26 2.17-.51 3.26-.75l.71 3.24c-1.07.24-2.13.48-3.2.74Zm94.47-.88c-1.07-.23-2.14-.46-3.21-.68l.65-3.25c1.09.22 2.18.45 3.27.69l-.71 3.24ZM189.22 25l-.67-3.25c1.09-.22 2.18-.44 3.27-.65l.62 3.26c-1.08.2-2.15.42-3.22.64Zm81.63-.76c-1.07-.2-2.15-.39-3.23-.57l.56-3.27c1.09.19 2.19.38 3.28.58l-.61 3.26Zm-75.17-.46-.56-3.27c1.09-.19 2.19-.37 3.29-.54l.51 3.28c-1.09.17-2.16.35-3.24.53Zm68.69-.64c-1.08-.17-2.17-.32-3.25-.47l.45-3.28c1.1.15 2.2.31 3.3.48l-.51 3.28Zm-62.2-.38-.46-3.28c1.1-.16 2.2-.3 3.3-.44l.41 3.29c-1.09.14-2.17.28-3.26.43Zm55.69-.52c-1.09-.13-2.18-.26-3.26-.37l.35-3.3c1.11.12 2.22.24 3.32.38l-.4 3.29Zm-49.17-.3-.36-3.3c1.1-.12 2.21-.23 3.32-.34l.31 3.3c-1.09.1-2.18.21-3.27.33Zm42.64-.39c-1.09-.1-2.18-.19-3.27-.27l.25-3.31c1.11.08 2.22.17 3.33.28l-.3 3.3Zm-36.1-.23-.26-3.31c1.11-.09 2.22-.17 3.33-.23l.21 3.31c-1.09.07-2.19.15-3.28.23Zm29.54-.27c-1.09-.07-2.18-.12-3.27-.17l.15-3.31c1.11.05 2.23.11 3.34.17l-.21 3.31Zm-22.98-.14-.16-3.31c1.11-.05 2.22-.1 3.33-.13l.11 3.31c-1.09.04-2.19.08-3.29.13Zm16.42-.15c-1.09-.03-2.19-.06-3.28-.07l.05-3.32c1.11.01 2.23.04 3.34.07l-.1 3.32Zm-9.86-.06-.05-3.32c1.11-.02 2.22-.03 3.33-.03v3.32c-1.09 0-2.18.01-3.28.03ZM304.49 310.67c-2.75-2.04-6.16-3.07-10.25-3.07-3.19 0-6.34 1.3-9.43 3.89-7.09 6.38-14.89 11.17-23.42 14.36-8.53 3.19-17.08 4.79-25.66 4.79-10.87 0-21.08-2.29-30.6-6.88s-17.23-11.54-23.12-20.88c-5.89-9.33-8.83-21.12-8.83-35.39 0-13.17 2.77-24.59 8.9-33.89 18.36-27.82 44.98-30.69 63.68-29.25 15.78 1.21 20.31 4.23 23.22 6.86 1.3 5.29 3.06 10.74 5.51 14.87 2.44 4.14 5.4 8.36 9.8 10.72 5.81 3.13 12.22 1.91 16.08-.67 2.68-1.79 3.88-4.95 3.88-10.84 0-.78-.09-1.47-.12-2.22.02.02.05.05.08.07-.17-7.63-.19-9.65-1.01-13.69-1.41-6.99-2.89-14.43-6.53-23.07-2.28-5.43-5.27-9.55-8.95-12.39-3.68-2.83-7.87-3.26-12.56-1.29-4.33 1.82-6.84 4.94-7.66 9.27-1.59-.39-3.2-.75-4.85-1.05-7.58-1.35-15.16-2.02-22.74-2.02-17.95 0-34.52 3.42-49.68 10.25-15.16 6.84-27.33 16.83-36.51 30-9.18 13.17-13.77 29.28-13.77 48.33s4.14 35.99 12.42 49.9c8.28 13.92 19.75 24.57 34.41 31.95 14.67 7.38 31.58 11.07 50.73 11.07 6.58 0 13.91-.92 21.99-2.77a110.5 110.5 0 0 0 23.34-8.16c7.48-3.59 13.64-7.93 18.48-13.02 4.83-5.09 7.25-10.82 7.25-17.21 0-3.69-1.37-6.56-4.11-8.61Z"/><path d="M313.65 123.73s-21-4.27-43.32-14.52c-27.32-12.56-36.59-22.84-38.12-24.84v-.4l-.02.03-.02-.03v.07l-.1.15a.769.769 0 0 1-.1-.15v-.07l-.02.03-.02-.03v.4c-1.54 2-10.8 12.28-38.12 24.84-22.31 10.25-43.32 14.52-43.32 14.52l-13.94 31.22s35.8-10.31 57.72-19.11c21.63-8.69 36.05-20.99 37.8-24.41 1.75 3.42 16.17 15.72 37.8 24.41 21.92 8.81 57.72 19.11 57.72 19.11l-13.94-31.22Z" class="cls-1"/><path d="m239.8 86.18 3.57 21.17c.14.85-.82 1.52-1.65 1.12-5.15-2.54-12.35-2.84-18.96.14-.87.39-1.86-.21-1.71-1.08l3.59-21.13c.06-.33.27-.63.58-.8 4.93-2.64 11.67-1.61 14.11-.14.27.16.42.43.46.73Z"/><path d="M323.34 157.66s-32.9-9.41-54.41-17.97c-24.69-9.82-36.85-22-36.85-22v.08-.08s-12.16 12.19-36.85 22c-21.51 8.55-54.41 17.97-54.41 17.97l-4.27 9.44s39.35-11.17 59.61-20.17c25.61-11.38 34.77-21.73 35.92-23.11 1.15 1.39 10.32 11.74 35.92 23.11 20.26 9 59.61 20.17 59.61 20.17l-4.27-9.44Z" class="cls-1"/></svg>